<?xml version="1.0" encoding="UTF-8" standalone="no"?>
<svg
   viewBox="0 0 16 16"
   version="1.1"
   id="svg24"
   sodipodi:docname="dagger.svg"
   inkscape:version="1.1.1 (3bf5ae0d25, 2021-09-20)"
   xmlns:inkscape="http://www.inkscape.org/namespaces/inkscape"
   xmlns:sodipodi="http://sodipodi.sourceforge.net/DTD/sodipodi-0.dtd"
   xmlns="http://www.w3.org/2000/svg"
   xmlns:svg="http://www.w3.org/2000/svg">
  <defs
     id="defs28" />
  <sodipodi:namedview
     id="namedview26"
     pagecolor="#ffffff"
     bordercolor="#666666"
     borderopacity="1.0"
     inkscape:pageshadow="2"
     inkscape:pageopacity="0.0"
     inkscape:pagecheckerboard="0"
     showgrid="false"
     inkscape:zoom="36.769553"
     inkscape:cx="8.0093441"
     inkscape:cy="8.0093441"
     inkscape:window-width="1920"
     inkscape:window-height="1017"
     inkscape:window-x="1912"
     inkscape:window-y="-8"
     inkscape:window-maximized="1"
     inkscape:current-layer="svg24" />
  <path
     fill="#9aaab4"
     d="M 10.310708,8.3146096 C 9.9991881,8.6256896 7.1985881,13.91493 0.35438809,15.78185 0.97654809,15.15925 8.9519881,6.2378096 8.9519881,6.2378096 Z"
     id="path2"
     style="stroke-width:0.44" />
  <path
     fill="#ccd6dd"
     d="m 7.8211881,5.8250896 c -0.31108,0.31108 -5.60032,3.11212 -7.46680001,9.9567604 L 9.6881081,6.4476896 Z"
     id="path4"
     style="stroke-width:0.44" />
  <path
     fill="#d99e82"
     d="m 9.0659481,5.2029296 c -0.34364,0.34364 -0.2882,0.95656 0.12452,1.36928 l 0.37312,0.37356 c 0.41272,0.41228 1.0251999,0.46772 1.3692799,0.12408 l 3.42232,-3.42232 c 0.34364,-0.34364 0.28776,-0.95656 -0.12452,-1.36884 l -0.37312,-0.37312 c -0.41272,-0.41272 -1.02564,-0.46816 -1.36884,-0.12452 z"
     id="path6"
     style="stroke-width:0.44" />
  <path
     d="m 12.736868,5.2658496 -3.1112399,-0.62216 -0.55924,0.55924 c -0.05852,0.05852 -0.1012,0.12672 -0.13684,0.19888 l 3.0597599,0.61204 z m -3.1732799,1.67992 c 0.41272,0.41272 1.0256399,0.46772 1.3692799,0.12408 l 0.36344,-0.36344 -2.3443199,-0.4686 c 0.05764,0.1188 0.13728,0.23276 0.23892,0.3344 z m 3.9208399,-2.42792 0.748,-0.74756 -3.11124,-0.62216 -0.748,0.74756 z m 1.06612,-1.66892 c -0.04708,-0.2024 -0.15224,-0.40304 -0.31988,-0.57068 l -0.37312,-0.37312 c -0.04532,-0.04532 -0.09372,-0.08448 -0.143,-0.121 l -0.9284,-0.18568 c -0.11088,0.03696 -0.21252,0.0968 -0.29744,0.18216 l -0.54648,0.54648 z"
     fill="#bf6952"
     id="path8"
     style="stroke-width:0.44" />
  <circle
     fill="#8a4633"
     cx="14.041907"
     cy="2.0960894"
     r="1.76"
     id="circle10"
     style="stroke-width:0.44" />
  <path
     fill="#ffac33"
     d="m 7.1990281,4.2696896 c 0.25784,-0.25784 0.67584,-0.25784 0.93324,0 l 3.8891599,3.88916 c 0.25784,0.25784 0.25784,0.67584 0,0.93324 -0.25784,0.25784 -0.6754,0.25784 -0.93324,0 l -3.8891599,-3.88916 c -0.25784,-0.25696 -0.25784,-0.6754 0,-0.93324 z"
     id="path12"
     style="stroke-width:0.44" />
  <circle
     fill="#ffac33"
     cx="12.021428"
     cy="9.0920887"
     r="1.1"
     id="circle14"
     style="stroke-width:0.44" />
  <circle
     fill="#ffac33"
     cx="7.1990271"
     cy="4.2696896"
     r="1.1"
     id="circle16"
     style="stroke-width:0.44" />
  <circle
     fill="#ffcc4d"
     cx="12.021428"
     cy="9.0920887"
     r="0.66000003"
     id="circle18"
     style="stroke-width:0.44" />
  <circle
     fill="#ffcc4d"
     cx="7.1990271"
     cy="4.2696896"
     r="0.66000003"
     id="circle20"
     style="stroke-width:0.44" />
  <path
     fill="#ffac33"
     d="m 11.713428,1.6151696 c 0.18348,-0.18348 0.48092,-0.18348 0.66396,0 l 2.1406,2.14104 c 0.18348,0.18348 0.18348,0.48048 0,0.66396 -0.18348,0.18348 -0.48048,0.18348 -0.66396,0 l -2.1406,-2.14104 c -0.18348,-0.18304 -0.18348,-0.48048 0,-0.66396 z"
     id="path22"
     style="stroke-width:0.44" />
</svg>
